<!DOCTYPE svg PUBLIC "-//W3C//DTD SVG 1.1//EN" "http://www.w3.org/Graphics/SVG/1.1/DTD/svg11.dtd">

<!-- Uploaded to: SVG Repo, www.svgrepo.com, Transformed by: SVG Repo Mixer Tools -->
<svg fill="#399c70" version="1.1" id="Capa_1" xmlns="http://www.w3.org/2000/svg" xmlns:xlink="http://www.w3.org/1999/xlink" viewBox="0 0 490 490" xml:space="preserve" width="24px" height="24px">

<g id="SVGRepo_bgCarrier" stroke-width="0"/>

<g id="SVGRepo_tracerCarrier" stroke-linecap="round" stroke-linejoin="round"/>

<g id="SVGRepo_iconCarrier"> <g id="line_43_"> <path d="M245,0C109.683,0,0,109.684,0,245s109.683,245,245,245s245-109.683,245-245S380.317,0,245,0z M245,459.375 c-118.213,0-214.375-96.163-214.375-214.375S126.787,30.625,245,30.625S459.375,126.787,459.375,245S363.212,459.375,245,459.375z"/> <path d="M182.862,215.462v-57.56c9.524,4.119,15.404,11.975,17.671,23.551l37.255-4.854c-2.557-14.715-8.437-26.475-17.671-35.265 c-9.233-8.789-21.652-14.118-37.255-15.986v-14.562h-21.346v14.562c-16.89,1.669-30.411,7.978-40.578,18.926 c-10.152,10.933-15.236,24.454-15.236,40.548c0,15.91,4.502,29.415,13.475,40.578c8.973,11.132,23.091,19.462,42.339,24.944v61.694 c-5.314-2.557-10.106-6.676-14.424-12.372c-4.318-5.696-7.273-12.465-8.835-20.32l-38.434,4.119 c2.955,19.34,9.723,34.3,20.32,44.912c10.611,10.596,24.393,16.936,41.39,18.988v26.797h21.346v-27.532 c19.141-2.741,34.086-10.198,44.85-22.372c10.749-12.173,16.124-27.149,16.124-44.912c0-15.91-4.272-28.941-12.801-39.093 C222.46,230.132,206.428,221.848,182.862,215.462z M161.516,208.403c-6.401-2.756-11.148-6.37-14.302-10.841 c-3.124-4.456-4.716-9.279-4.716-14.486c0-5.681,1.715-10.887,5.16-15.604c3.43-4.731,8.054-8.054,13.843-10.014v50.945H161.516z M200.823,303.892c-4.624,5.451-10.612,8.866-17.962,10.229v-57.422c8.835,2.557,15.205,6.217,19.064,10.964 c3.889,4.762,5.819,10.428,5.819,17.012C207.745,292.04,205.432,298.441,200.823,303.892z"/> <polygon points="334.992,376.887 390.178,281.306 279.805,281.306 "/> <rect x="319.679" y="112.96" width="30.625" height="168.346"/> </g> </g>

</svg>