<svg width="149" height="19" viewBox="0 0 149 19" fill="none" xmlns="http://www.w3.org/2000/svg">
<path d="M12.3648 1.24869C11.6954 1.1967 4.43767 1.24869 4.43767 1.24869C4.43767 1.24869 2.90063 1.0451 2.53238 2.95939C2.47522 3.25679 2.53014 3.90445 2.53238 4.5826C2.5343 5.32361 2.51173 6.41852 2.53238 7.6078C2.57753 10.2143 2.60506 13.095 2.60506 13.095C2.60506 13.095 2.25283 14.4886 4.43702 15.412C6.62122 16.3354 7.53736 14.1403 7.53736 14.1403L8.68229 12.3806C8.68229 12.3806 10.6553 11.5789 10.6905 11.5271C10.7257 11.4753 13.5795 8.7392 13.5795 8.7392C13.5795 8.7392 14.4427 7.45013 14.4427 7.39814C14.4427 7.34615 14.7598 5.44654 14.7598 5.44654L14.5485 4.03564L13.7734 2.10139C13.7734 2.10139 13.0342 1.30053 12.3648 1.24869Z" fill="white"/>
<g filter="url(#filter0_d_14_543)">
<path d="M12.3646 1.24967C11.6952 1.19768 4.43755 1.24967 4.43755 1.24967C4.43755 1.24967 2.90051 1.04608 2.53226 2.96037C2.4751 3.25776 2.53002 3.90543 2.53226 4.58358C2.53418 5.32459 2.5116 6.4195 2.53226 7.60877C2.57741 10.2153 2.60494 13.096 2.60494 13.096C2.60494 13.096 2.25271 14.4896 4.4369 15.413C6.62109 16.3364 7.53723 14.1413 7.53723 14.1413L8.68217 12.3815C8.68217 12.3815 10.6552 11.5799 10.6904 11.5281C10.7256 11.4762 13.5794 8.74018 13.5794 8.74018C13.5794 8.74018 14.4425 7.45111 14.4425 7.39912C14.4425 7.34712 14.7597 5.44752 14.7597 5.44752L14.5484 4.03662L13.7733 2.10236C13.7733 2.10236 13.0341 1.3015 12.3646 1.24967Z" fill="white"/>
</g>
<mask id="mask0_14_543" style="mask-type:luminance" maskUnits="userSpaceOnUse" x="2" y="1" width="16" height="16">
<path fill-rule="evenodd" clip-rule="evenodd" d="M14.8821 2.60632C13.3881 1.48344 13.3846 1.47368 13.3846 1.47368C13.2647 1.38256 13.1372 1.30195 13.0034 1.23275C12.8658 1.15171 12.7177 1.08992 12.5633 1.0491C12.389 1.01004 12.2104 0.994167 12.032 1.0019H4.59276C4.29565 0.995164 4.00041 1.05044 3.7259 1.16421C3.45139 1.27798 3.20367 1.44773 2.99856 1.66261C2.57612 2.07205 2.33298 2.63188 2.32227 3.21983V13.2722C2.34245 13.8581 2.58411 14.4146 2.99856 14.8296C3.09463 14.8767 3.14346 14.9711 3.24016 15.0183L5.12416 16.4333C5.17219 16.5277 5.26905 16.5749 5.31741 16.6221C5.67282 16.8663 6.09361 16.9979 6.52494 16.9996C6.79521 17.0047 7.06378 16.956 7.31504 16.8563C7.56629 16.7567 7.79522 16.6082 7.98851 16.4194C8.1818 16.2306 8.33559 16.0052 8.44094 15.7565C8.5463 15.5078 8.6011 15.2406 8.60218 14.9705V14.7345C8.5992 14.5387 8.67361 14.3496 8.80927 14.2082C8.94493 14.0669 9.1309 13.9847 9.32683 13.9794H9.61662C13.8193 13.9794 17.2008 11.8087 17.2008 7.56146V7.51427C17.2008 5.43792 16.3797 3.73896 14.8821 2.60632ZM3.57831 14.7345V14.6873H3.53028V14.6393H3.43422V14.5921H3.38618V14.5442H3.33815V14.497C3.17099 14.3395 3.03757 14.1497 2.94598 13.9392C2.85439 13.7287 2.80653 13.5017 2.80531 13.2722V3.21983C2.80122 2.98234 2.84631 2.74656 2.93776 2.52731C3.02921 2.30806 3.16503 2.11007 3.33671 1.94577C3.67672 1.62346 4.12423 1.43851 4.59276 1.42664H12.032C12.1769 1.42664 12.3218 1.47384 12.4185 1.47384C12.5501 1.51313 12.6792 1.56041 12.805 1.61542C13.0833 1.75301 13.3177 1.96549 13.4818 2.22893C13.6404 2.48389 13.7241 2.77823 13.7234 3.07841C13.7168 3.50454 13.5434 3.91114 13.2403 4.21105C12.909 4.51048 12.4794 4.67836 12.0327 4.68298H7.68428C7.51359 4.67999 7.3441 4.71194 7.18624 4.77687C7.02838 4.8418 6.88549 4.93833 6.76638 5.06053C6.64433 5.17587 6.54712 5.31486 6.48067 5.46903C6.41423 5.62319 6.37996 5.78928 6.37996 5.95712C6.37996 6.12497 6.41423 6.29106 6.48067 6.44522C6.54712 6.59938 6.64433 6.73838 6.76638 6.85372C6.88549 6.97591 7.02838 7.07245 7.18624 7.13738C7.3441 7.20231 7.51359 7.23426 7.68428 7.23126H9.80988C10.2422 7.23615 10.6566 7.40482 10.9692 7.7032C11.1219 7.84973 11.2434 8.02558 11.3264 8.22021C11.4095 8.41483 11.4522 8.6242 11.4522 8.83576C11.4522 9.04731 11.4095 9.25669 11.3264 9.45131C11.2434 9.64593 11.1219 9.82179 10.9692 9.96832C10.8208 10.125 10.6406 10.2482 10.4406 10.3297C10.2407 10.4111 10.0256 10.4489 9.80988 10.4406H7.34613C7.09272 10.4449 6.85065 10.5463 6.66984 10.7237C6.57955 10.8087 6.50735 10.9111 6.45756 11.0246C6.40776 11.1381 6.3814 11.2605 6.38004 11.3844V11.4316V11.4788V11.526V11.5732V11.6204V11.6676V11.7148V11.762V11.8092V11.8564V11.9036V11.9508V11.998V12.0451V12.0923V13.2722C6.37931 13.502 6.33183 13.7293 6.24048 13.9402C6.14913 14.1512 6.01582 14.3413 5.84864 14.4992C5.68371 14.664 5.48788 14.7947 5.27235 14.8837C5.05683 14.9728 4.82583 15.0185 4.5926 15.0183C4.23387 15.0259 3.88092 14.9272 3.57831 14.7345Z" fill="white"/>
</mask>
<g mask="url(#mask0_14_543)">
<path d="M-3.50301 -7.82071L1.03001 -10.3803C4.89455 -12.5616 9.83558 -11.2668 12.0671 -7.48891L14.9127 -2.67043C17.1439 1.10767 15.82 5.93869 11.9553 8.12012L7.42227 10.6797C3.55773 12.8611 -1.3833 11.5662 -3.61485 7.78832L-6.46031 2.96976C-8.69158 -0.808256 -7.36755 -5.63936 -3.50301 -7.82071Z" fill="#2955D9"/>
<path d="M3.11288 12.0545L15.3433 5.15102C16.1777 4.67838 17.1637 4.54988 18.0914 4.79288C19.0192 5.03589 19.8153 5.63119 20.3103 6.45201L27.5995 18.7955C27.8376 19.2 27.9921 19.6481 28.0539 20.1133C28.1158 20.5785 28.0837 21.0514 27.9597 21.504C27.8356 21.9566 27.6221 22.3798 27.3316 22.7486C27.0412 23.1174 26.6798 23.4243 26.2687 23.6512L14.0382 30.5547C13.2038 31.0273 12.2177 31.1558 11.2899 30.9126C10.3621 30.6695 9.56598 30.074 9.07111 29.2531L1.78201 16.9102C1.54399 16.5057 1.38948 16.0576 1.32763 15.5924C1.26578 15.1272 1.29782 14.6543 1.42187 14.2017C1.54593 13.7491 1.75947 13.3259 2.04991 12.9571C2.34034 12.5883 2.70178 12.2814 3.11288 12.0545Z" fill="#2955D9"/>
<path d="M4.00806 -6.73434L20.1192 -15.8283L29.4173 -0.0831655L13.3062 9.01079L4.00806 -6.73434Z" fill="#3E74FF"/>
<path d="M9.26978 5.44077L18.5621 21.1759L2.46185 30.2638L-6.83048 14.5286L9.26978 5.44077Z" fill="#3E74FF"/>
</g>
<path d="M23.2759 13.7125V3.2207H30.7626V5.14412H25.4777V7.41749H30.6038V9.3409H25.5217V13.7116L23.2759 13.7125Z" fill="#0F2C5E"/>
<path d="M32.0744 3.79786C32.0743 3.56089 32.145 3.32922 32.2776 3.13217C32.4102 2.93512 32.5987 2.78153 32.8193 2.69083C33.0398 2.60013 33.2825 2.5764 33.5166 2.62264C33.7508 2.66887 33.9658 2.783 34.1346 2.95059C34.3034 3.11817 34.4183 3.33168 34.4648 3.56411C34.5113 3.79653 34.4874 4.03743 34.3959 4.25633C34.3045 4.47524 34.1497 4.6623 33.9512 4.79388C33.7527 4.92545 33.5193 4.99561 33.2805 4.99549C32.9612 4.99323 32.6555 4.86629 32.4297 4.64212C32.2039 4.41796 32.076 4.11456 32.0737 3.79755L32.0744 3.79786ZM32.2418 13.7126V6.11463H34.2573V13.7126H32.2418Z" fill="#0F2C5E"/>
<path d="M41.4635 13.7121V9.11338C41.493 8.92145 41.4768 8.72533 41.4161 8.54077C41.3554 8.3562 41.2519 8.18833 41.114 8.05065C40.9762 7.91296 40.8077 7.80929 40.6221 7.74796C40.4365 7.68664 40.239 7.66936 40.0455 7.69752C39.7036 7.69686 39.3662 7.77559 39.0603 7.92742C38.7545 8.07925 38.4886 8.29998 38.284 8.57197V13.7121H36.2933V6.11453H38.3014V7.10256C38.6372 6.7255 39.0511 6.42484 39.5147 6.22112C39.9784 6.0174 40.4809 5.91543 40.9878 5.92216C41.3198 5.88242 41.6565 5.91735 41.973 6.02434C42.2895 6.13133 42.5777 6.30766 42.8163 6.54024C43.0548 6.77283 43.2376 7.05571 43.351 7.36793C43.4644 7.68016 43.5056 8.01372 43.4715 8.34389V13.7121H41.4635Z" fill="#0F2C5E"/>
<path d="M45.8679 11.7894V7.85484H44.573V6.10626H45.8412V4.03418H47.8669V6.11518H49.4259V7.86377H47.8936V11.2997C47.8936 11.7718 48.1491 12.1307 48.5981 12.1307C48.8485 12.14 49.0944 12.0627 49.2939 11.9122L49.7165 13.4247C49.2355 13.7877 48.6366 13.962 48.0343 13.9144C47.7424 13.956 47.4448 13.93 47.1647 13.8384C46.8846 13.7468 46.6297 13.5921 46.4198 13.3864C46.21 13.1808 46.0509 12.9297 45.9551 12.6528C45.8593 12.376 45.8293 12.0809 45.8676 11.7906L45.8679 11.7894Z" fill="#0F2C5E"/>
<path d="M54.2616 5.9209C56.5515 5.9209 58.1019 7.61716 58.1019 10.1088V10.5458H52.4471C52.5215 11.0606 52.7905 11.528 53.1996 11.8529C53.6086 12.1778 54.127 12.3359 54.6492 12.295C55.3994 12.2973 56.1252 12.0302 56.6926 11.5431L57.5735 12.8284C56.6871 13.55 55.5661 13.9261 54.4204 13.8863C53.88 13.916 53.3392 13.8332 52.8329 13.6433C52.3265 13.4534 51.8658 13.1605 51.4801 12.7835C51.0945 12.4065 50.7925 11.9536 50.5935 11.4539C50.3945 10.9542 50.303 10.4188 50.3247 9.88191C50.3116 9.36261 50.4041 8.84602 50.5967 8.36302C50.7893 7.88001 51.078 7.44052 51.4456 7.07079C51.8132 6.70107 52.2521 6.40871 52.7361 6.21119C53.2202 6.01367 53.7393 5.91504 54.2626 5.92121L54.2616 5.9209ZM52.4121 9.16444H56.1906C56.1786 8.92832 56.1186 8.69706 56.014 8.48464C55.9094 8.27222 55.7625 8.08306 55.5822 7.92859C55.4019 7.77412 55.1919 7.65755 54.9649 7.58593C54.738 7.51431 54.4987 7.48912 54.2616 7.51189C53.801 7.50764 53.3554 7.67501 53.013 7.98097C52.6705 8.28692 52.4561 8.70921 52.4121 9.16444Z" fill="#0F2C5E"/>
<path d="M63.1653 5.92087C63.746 5.88485 64.3266 5.99216 64.8553 6.23321C65.3841 6.47426 65.8444 6.84154 66.1953 7.30225L64.8741 8.51743C64.696 8.25755 64.455 8.04616 64.1734 7.90259C63.8917 7.75902 63.5782 7.68786 63.2617 7.69562C62.975 7.6898 62.6903 7.74394 62.4261 7.85452C62.1619 7.9651 61.9241 8.12964 61.7281 8.33745C61.5322 8.54525 61.3825 8.79167 61.2888 9.06067C61.1951 9.32967 61.1594 9.61524 61.1842 9.89881C61.1596 10.1832 61.1952 10.4695 61.2888 10.7394C61.3823 11.0093 61.5318 11.2568 61.7274 11.466C61.9231 11.6751 62.1607 11.8413 62.4249 11.9539C62.6891 12.0664 62.9742 12.1229 63.2617 12.1196C63.5769 12.1251 63.8887 12.0539 64.1698 11.9122C64.4509 11.7704 64.6927 11.5624 64.8741 11.3064L66.1953 12.5129C65.8454 12.9753 65.3855 13.3443 64.8567 13.5869C64.3279 13.8295 63.7467 13.9382 63.1653 13.9032C62.6277 13.9279 62.0908 13.8414 61.5887 13.6492C61.0866 13.457 60.6302 13.1634 60.2484 12.7869C59.8667 12.4104 59.5679 11.9592 59.371 11.4621C59.1742 10.9649 59.0835 10.4326 59.1049 9.89881C59.0873 9.36723 59.1808 8.83779 59.3793 8.34378C59.5778 7.84977 59.8772 7.40188 60.2586 7.02827C60.6399 6.65466 61.095 6.36341 61.5952 6.17283C62.0955 5.98225 62.63 5.89647 63.1653 5.92087Z" fill="#0F2C5E"/>
<path d="M72.6971 13.7125V9.08728C72.6971 8.02939 72.1333 7.69697 71.2614 7.69697C70.9202 7.70029 70.5842 7.78077 70.2789 7.93229C69.9737 8.08381 69.7073 8.30238 69.4999 8.57141V13.7116H67.4739V3.2207H69.4819V7.11154C69.8197 6.73221 70.2364 6.43022 70.7033 6.22641C71.1702 6.02261 71.6761 5.92187 72.1861 5.93115C72.5161 5.88199 72.853 5.90794 73.1715 6.00706C73.4899 6.10617 73.7815 6.27585 74.0241 6.50326C74.2668 6.73067 74.4542 7.00987 74.5721 7.31974C74.6901 7.62961 74.7356 7.96206 74.7051 8.29194V13.7125H72.6971Z" fill="#0F2C5E"/>
<path d="M79.5582 13.7135V3.22044H84.5082C84.9691 3.19649 85.43 3.2659 85.8629 3.42446C86.2958 3.58302 86.6917 3.82741 87.0264 4.14273C87.3612 4.45805 87.6277 4.83771 87.8099 5.25858C87.992 5.67945 88.086 6.13273 88.086 6.59079C88.086 7.04886 87.992 7.50214 87.8099 7.92301C87.6277 8.34388 87.3612 8.72354 87.0264 9.03886C86.6917 9.35418 86.2958 9.59856 85.8629 9.75712C85.43 9.91568 84.9691 9.9851 84.5082 9.96115H81.8041V13.7212L79.5582 13.7135ZM84.2 5.13523H81.8041V8.0285H84.2C84.4012 8.04447 84.6035 8.01892 84.7942 7.95347C84.985 7.88801 85.16 7.78406 85.3083 7.64817C85.4566 7.51228 85.5749 7.34738 85.6558 7.16387C85.7368 6.98036 85.7785 6.7822 85.7785 6.58187C85.7785 6.38154 85.7368 6.18338 85.6558 5.99986C85.5749 5.81635 85.4566 5.65146 85.3083 5.51557C85.16 5.37967 84.985 5.27573 84.7942 5.21027C84.6035 5.14481 84.4012 5.11926 84.2 5.13523Z" fill="#0F2C5E"/>
<path d="M89.4037 13.7122V6.11428H91.4117V7.14601C91.7084 6.78163 92.0809 6.48518 92.5036 6.27694C92.9264 6.06869 93.3895 5.95357 93.8613 5.93945V7.88934C93.4178 7.80439 92.9597 7.83372 92.5309 7.97452C92.1021 8.11533 91.7167 8.3629 91.4117 8.6936V13.7107L89.4037 13.7122Z" fill="#0F2C5E"/>
<path d="M94.9004 3.79755C94.9004 3.56062 94.9712 3.32901 95.1038 3.13201C95.2364 2.93501 95.4249 2.78147 95.6454 2.6908C95.8659 2.60013 96.1085 2.57641 96.3426 2.62263C96.5767 2.66885 96.7918 2.78294 96.9605 2.95048C97.1293 3.11801 97.2442 3.33147 97.2908 3.56384C97.3374 3.79622 97.3135 4.03709 97.2221 4.25598C97.1308 4.47487 96.9761 4.66197 96.7777 4.7936C96.5792 4.92523 96.3459 4.99549 96.1072 4.99549C95.7871 4.99549 95.4802 4.86928 95.2539 4.64462C95.0275 4.41996 94.9004 4.11526 94.9004 3.79755ZM95.1119 13.7122V6.11432H97.1205V13.7122H95.1119Z" fill="#0F2C5E"/>
<path d="M108.624 13.7123V8.91219C108.624 8.20426 108.298 7.69702 107.479 7.69702C107.164 7.71045 106.857 7.79648 106.582 7.94827C106.307 8.10006 106.071 8.31344 105.893 8.57146V13.7116H103.859V8.91219C103.859 8.20426 103.541 7.69702 102.723 7.69702C102.408 7.71114 102.101 7.79746 101.826 7.94919C101.551 8.10092 101.315 8.31393 101.137 8.57146V13.7116H99.0938V6.11434H101.109V7.10236C101.417 6.7398 101.8 6.44688 102.231 6.24328C102.663 6.03968 103.133 5.93012 103.611 5.92196C104.07 5.87535 104.532 5.98707 104.919 6.2384C105.306 6.48973 105.594 6.86539 105.735 7.30242C106.033 6.88028 106.428 6.53476 106.888 6.29453C107.347 6.05429 107.858 5.92626 108.377 5.92104C108.687 5.88772 109 5.92483 109.293 6.02955C109.587 6.13427 109.852 6.30386 110.069 6.52546C110.286 6.74707 110.45 7.01486 110.548 7.30856C110.645 7.60226 110.674 7.91414 110.632 8.22058V13.7123H108.624Z" fill="#0F2C5E"/>
<path d="M112.42 3.79755C112.42 3.56062 112.49 3.32901 112.623 3.13201C112.756 2.93501 112.944 2.78147 113.165 2.6908C113.385 2.60013 113.628 2.57641 113.862 2.62263C114.096 2.66885 114.311 2.78294 114.48 2.95048C114.649 3.11801 114.764 3.33147 114.81 3.56384C114.857 3.79622 114.833 4.03709 114.741 4.25598C114.65 4.47487 114.495 4.66197 114.297 4.7936C114.098 4.92523 113.865 4.99549 113.626 4.99549C113.306 4.99549 112.999 4.86928 112.773 4.64462C112.547 4.41996 112.42 4.11526 112.42 3.79755ZM112.631 13.7122V6.11432H114.639V13.7122H112.631Z" fill="#0F2C5E"/>
<path d="M117.035 11.7894V7.85484H115.766V6.10626H117.035V4.03418H119.06V6.11518H120.619V7.86377H119.06V11.2997C119.06 11.7718 119.316 12.1741 119.765 12.1741C120.015 12.1834 120.261 12.1061 120.461 11.9556L120.883 13.4681C120.405 13.8299 119.809 14.0042 119.209 13.9578C118.912 14.0026 118.609 13.9773 118.323 13.884C118.038 13.7907 117.779 13.632 117.567 13.4209C117.356 13.2097 117.197 12.9519 117.104 12.6685C117.011 12.385 116.987 12.0839 117.033 11.7894H117.035Z" fill="#0F2C5E"/>
<path d="M121.792 3.79755C121.792 3.56062 121.863 3.32901 121.995 3.13201C122.128 2.93501 122.316 2.78147 122.537 2.6908C122.757 2.60013 123 2.57641 123.234 2.62263C123.468 2.66885 123.683 2.78294 123.852 2.95048C124.021 3.11801 124.136 3.33147 124.182 3.56384C124.229 3.79622 124.205 4.03709 124.113 4.25598C124.022 4.47487 123.867 4.66197 123.669 4.7936C123.471 4.92523 123.237 4.99549 122.999 4.99549C122.678 4.99549 122.372 4.86928 122.145 4.64462C121.919 4.41996 121.792 4.11526 121.792 3.79755ZM121.994 13.7122V6.11432H124.01V13.7122H121.994Z" fill="#0F2C5E"/>
<path d="M127.992 13.7132L124.91 6.11523H127.067L129.04 11.4062L131.04 6.11523H133.217L130.134 13.7132H127.992Z" fill="#0F2C5E"/>
<path d="M137.61 5.92181C139.9 5.92181 141.451 7.61807 141.451 10.1097V10.5467H135.761C135.835 11.0613 136.104 11.5284 136.513 11.8532C136.922 12.178 137.44 12.336 137.962 12.2953C138.714 12.2968 139.44 12.0264 140.006 11.5348L140.886 12.8275C140 13.5491 138.879 13.9252 137.733 13.8854C137.191 13.9172 136.648 13.8397 136.137 13.6578C135.626 13.4758 135.157 13.1931 134.759 12.8266C134.361 12.4601 134.042 12.0174 133.82 11.5252C133.599 11.033 133.481 10.5014 133.472 9.96248C133.463 9.42354 133.564 8.88839 133.769 8.38923C133.973 7.89007 134.278 7.43722 134.664 7.05794C135.05 6.67866 135.509 6.38079 136.014 6.18227C136.518 5.98374 137.058 5.88865 137.601 5.90273L137.61 5.92181ZM135.725 9.16567H139.505C139.496 8.93051 139.44 8.69954 139.339 8.48659C139.238 8.27363 139.095 8.08307 138.918 7.92633C138.741 7.76958 138.534 7.64988 138.31 7.57438C138.085 7.49888 137.848 7.46915 137.611 7.48695C137.14 7.47399 136.682 7.64085 136.331 7.95315C135.98 8.26545 135.763 8.69942 135.725 9.16567Z" fill="#0F2C5E"/>
<path d="M143.134 11.325C143.876 11.9492 144.805 12.3119 145.776 12.3567C146.657 12.3567 147.062 12.0594 147.062 11.5873C147.062 11.1151 146.402 10.8615 145.529 10.7128C144.208 10.4666 142.517 10.1532 142.517 8.34279C142.517 7.06636 143.636 5.94722 145.652 5.94722C146.768 5.92522 147.857 6.29348 148.727 6.98757L147.934 8.35141C147.322 7.78051 146.51 7.46712 145.67 7.47696C144.939 7.47696 144.464 7.7392 144.464 8.18489C144.464 8.63058 145.071 8.82326 145.926 8.99809C147.238 9.25171 149 9.60137 149 11.4912C149 12.8902 147.811 13.9305 145.688 13.9305C144.433 13.9546 143.213 13.5257 142.253 12.7236L143.134 11.325Z" fill="#0F2C5E"/>
<defs>
<filter id="filter0_d_14_543" x="0.845019" y="0.395898" width="15.576" height="17.7358" filterUnits="userSpaceOnUse" color-interpolation-filters="sRGB">
<feFlood flood-opacity="0" result="BackgroundImageFix"/>
<feColorMatrix in="SourceAlpha" type="matrix" values="0 0 0 0 0 0 0 0 0 0 0 0 0 0 0 0 0 0 127 0" result="hardAlpha"/>
<feOffset dy="0.830664"/>
<feGaussianBlur stdDeviation="0.830664"/>
<feColorMatrix type="matrix" values="0 0 0 0 1 0 0 0 0 1 0 0 0 0 1 0 0 0 0.161 0"/>
<feBlend mode="normal" in2="BackgroundImageFix" result="effect1_dropShadow_14_543"/>
<feBlend mode="normal" in="SourceGraphic" in2="effect1_dropShadow_14_543" result="shape"/>
</filter>
</defs>
</svg>
