<svg width="158" height="40" viewBox="0 0 158 40" fill="none" xmlns="http://www.w3.org/2000/svg"><path d="M44.7695 18.0209V1.00696H56.9705V4.12604H48.3578V7.81264H56.7117V10.9317H48.4296V18.0194L44.7695 18.0209Z" fill="#0F2C5E"></path><path d="M59.1104 1.94325C59.1103 1.55897 59.2256 1.18329 59.4417 0.863743C59.6577 0.544192 59.9649 0.295124 60.3243 0.148044C60.6838 0.000964415 61.0793 -0.0375191 61.4608 0.0374621C61.8424 0.112443 62.1929 0.29752 62.4679 0.569281C62.743 0.841043 62.9303 1.18728 63.0061 1.56419C63.0819 1.9411 63.0428 2.33176 62.8938 2.68674C62.7449 3.04172 62.4926 3.34507 62.169 3.55843C61.8455 3.7718 61.4651 3.88557 61.0761 3.88538C60.5556 3.88172 60.0575 3.67587 59.6895 3.31235C59.3215 2.94883 59.1131 2.45683 59.1094 1.94275L59.1104 1.94325ZM59.3833 18.0213V5.70022H62.6678V18.0213H59.3833Z" fill="#0F2C5E"></path><path d="M74.4101 18.0218V10.5642C74.4582 10.253 74.4317 9.93495 74.3328 9.63565C74.2339 9.33635 74.0653 9.06413 73.8406 8.84085C73.6159 8.61757 73.3413 8.44945 73.0389 8.35C72.7364 8.25055 72.4146 8.22253 72.0992 8.26821C71.5419 8.26713 70.9921 8.39481 70.4937 8.64102C69.9952 8.88724 69.562 9.24517 69.2285 9.68624V18.0218H65.9844V5.70116H69.2568V7.30338C69.8041 6.69193 70.4786 6.20437 71.2342 5.87401C71.9898 5.54366 72.8087 5.37829 73.6349 5.38921C74.1759 5.32477 74.7246 5.3814 75.2404 5.5549C75.7562 5.72841 76.2259 6.01434 76.6147 6.39151C77.0034 6.76868 77.3012 7.22742 77.4861 7.73373C77.6709 8.24005 77.7381 8.78096 77.6825 9.31639V18.0218H74.4101Z" fill="#0F2C5E"></path><path d="M81.5868 14.9022V8.52179H79.4766V5.68622H81.5433V2.32605H84.8446V5.70069H87.3853V8.53627H84.888V14.1081C84.888 14.8738 85.3044 15.4558 86.0361 15.4558C86.4442 15.4707 86.8449 15.3455 87.17 15.1014L87.8588 17.5541C87.0749 18.1427 86.099 18.4254 85.1174 18.3482C84.6417 18.4157 84.1567 18.3735 83.7002 18.225C83.2438 18.0764 82.8283 17.8256 82.4863 17.4921C82.1443 17.1585 81.8851 16.7514 81.729 16.3024C81.5729 15.8535 81.524 15.3749 81.5863 14.9042L81.5868 14.9022Z" fill="#0F2C5E"></path><path d="M95.2649 5.38879C98.9967 5.38879 101.523 8.13952 101.523 12.18V12.8888H92.3077C92.4289 13.7236 92.8674 14.4814 93.534 15.0083C94.2006 15.5352 95.0454 15.7916 95.8965 15.7253C97.1191 15.729 98.3019 15.296 99.2266 14.506L100.662 16.5903C99.2176 17.7604 97.3907 18.3703 95.5236 18.3059C94.6428 18.354 93.7616 18.2198 92.9364 17.9118C92.1113 17.6038 91.3604 17.1289 90.7319 16.5175C90.1034 15.9061 89.6113 15.1717 89.287 14.3614C88.9627 13.5511 88.8135 12.6828 88.8488 11.8121C88.8275 10.97 88.9783 10.1323 89.2922 9.34903C89.6061 8.56578 90.0766 7.85307 90.6757 7.25351C91.2747 6.65395 91.99 6.17985 92.7788 5.85955C93.5676 5.53924 94.4136 5.3793 95.2664 5.38929L95.2649 5.38879ZM92.2506 10.6487H98.4085C98.389 10.2658 98.291 9.89073 98.1206 9.54626C97.9502 9.2018 97.7108 8.89504 97.417 8.64455C97.1232 8.39405 96.7809 8.20502 96.411 8.08887C96.0411 7.97273 95.6512 7.93189 95.2649 7.96881C94.5141 7.96192 93.788 8.23334 93.2299 8.72949C92.6719 9.22563 92.3224 9.91043 92.2506 10.6487Z" fill="#0F2C5E"></path><path d="M109.778 5.38616C110.725 5.32776 111.671 5.50177 112.533 5.89266C113.394 6.28355 114.145 6.87916 114.716 7.62627L112.563 9.59685C112.273 9.17542 111.88 8.83262 111.421 8.5998C110.962 8.36698 110.451 8.25158 109.936 8.26416C109.468 8.25473 109.004 8.34253 108.574 8.52185C108.143 8.70117 107.756 8.968 107.436 9.30498C107.117 9.64197 106.873 10.0416 106.72 10.4778C106.568 10.914 106.51 11.3771 106.55 11.837C106.51 12.2981 106.568 12.7625 106.72 13.2001C106.873 13.6378 107.116 14.0391 107.435 14.3783C107.754 14.7175 108.141 14.987 108.572 15.1695C109.002 15.3521 109.467 15.4436 109.936 15.4382C110.449 15.4473 110.957 15.3318 111.416 15.1019C111.874 14.872 112.268 14.5347 112.563 14.1195L114.716 16.0761C114.146 16.8259 113.397 17.4243 112.535 17.8177C111.673 18.2112 110.726 18.3874 109.778 18.3307C108.902 18.3706 108.027 18.2304 107.209 17.9187C106.391 17.6071 105.647 17.1309 105.025 16.5204C104.403 15.9098 103.916 15.1782 103.595 14.372C103.274 13.5658 103.126 12.7025 103.161 11.837C103.133 10.9749 103.285 10.1164 103.608 9.31525C103.932 8.51415 104.42 7.78783 105.041 7.18197C105.663 6.57611 106.405 6.10381 107.22 5.79475C108.035 5.4857 108.906 5.34659 109.778 5.38616Z" fill="#0F2C5E"></path><path d="M125.309 18.0209V10.5204C125.309 8.80492 124.39 8.26585 122.969 8.26585C122.413 8.27124 121.866 8.40175 121.368 8.64746C120.871 8.89317 120.437 9.24762 120.099 9.68389V18.0194H116.797V1.00696H120.069V7.3165C120.62 6.70137 121.299 6.21163 122.06 5.88114C122.821 5.55065 123.645 5.38728 124.476 5.40233C125.014 5.3226 125.563 5.3647 126.082 5.52542C126.601 5.68615 127.076 5.9613 127.472 6.33008C127.867 6.69886 128.173 7.15162 128.365 7.65412C128.557 8.15663 128.631 8.69573 128.581 9.23068V18.0209H125.309Z" fill="#0F2C5E"></path><path d="M44.7695 39.5695V22.5535H52.8364C53.5874 22.5147 54.3386 22.6272 55.0441 22.8844C55.7497 23.1415 56.3948 23.5378 56.9403 24.0491C57.4858 24.5605 57.9202 25.1761 58.2171 25.8586C58.5139 26.5411 58.667 27.2762 58.667 28.019C58.667 28.7618 58.5139 29.4969 58.2171 30.1794C57.9202 30.8619 57.4858 31.4776 56.9403 31.9889C56.3948 32.5002 55.7497 32.8965 55.0441 33.1537C54.3386 33.4108 53.5874 33.5234 52.8364 33.4845H48.4296V39.5819L44.7695 39.5695ZM52.3342 25.6586H48.4296V30.3505H52.3342C52.662 30.3764 52.9917 30.3349 53.3026 30.2288C53.6134 30.1226 53.8986 29.9541 54.1403 29.7337C54.3819 29.5133 54.5748 29.2459 54.7067 28.9483C54.8386 28.6507 54.9066 28.3294 54.9066 28.0045C54.9066 27.6797 54.8386 27.3583 54.7067 27.0607C54.5748 26.7631 54.3819 26.4957 54.1403 26.2754C53.8986 26.055 53.6134 25.8865 53.3026 25.7803C52.9917 25.6742 52.662 25.6327 52.3342 25.6586Z" fill="#0F2C5E"></path><path d="M60.8164 39.5676V27.2465H64.0889V28.9196C64.5723 28.3287 65.1793 27.848 65.8683 27.5103C66.5573 27.1726 67.3121 26.9859 68.0809 26.963V30.125C67.3581 29.9873 66.6116 30.0348 65.9128 30.2632C65.2139 30.4915 64.5859 30.893 64.0889 31.4293V39.5651L60.8164 39.5676Z" fill="#0F2C5E"></path><path d="M69.7734 23.4899C69.7734 23.1057 69.8888 22.7301 70.1049 22.4106C70.321 22.0911 70.6281 21.8421 70.9875 21.6951C71.3469 21.5481 71.7423 21.5096 72.1238 21.5846C72.5053 21.6595 72.8558 21.8445 73.1308 22.1162C73.4059 22.3879 73.5932 22.734 73.6691 23.1109C73.7449 23.4877 73.706 23.8783 73.5571 24.2333C73.4083 24.5882 73.1562 24.8916 72.8328 25.1051C72.5094 25.3186 72.1291 25.4325 71.7401 25.4325C71.2185 25.4325 70.7183 25.2278 70.3495 24.8635C69.9806 24.4992 69.7734 24.0051 69.7734 23.4899ZM70.1181 39.568V27.2468H73.3915V39.568H70.1181Z" fill="#0F2C5E"></path><path d="M92.1365 39.568V31.784C92.1365 30.636 91.6054 29.8134 90.2703 29.8134C89.7577 29.8352 89.2573 29.9747 88.8088 30.2209C88.3603 30.467 87.9761 30.813 87.6866 31.2315V39.567H84.3707V31.784C84.3707 30.636 83.8538 29.8134 82.5192 29.8134C82.0069 29.8363 81.5069 29.9763 81.0586 30.2223C80.6102 30.4684 80.2258 30.8138 79.9355 31.2315V39.567H76.6055V27.2469H79.89V28.8491C80.3919 28.2612 81.0153 27.7861 81.7184 27.456C82.4215 27.1258 83.188 26.9481 83.9665 26.9349C84.7159 26.8593 85.4689 27.0405 86.0992 27.4481C86.7295 27.8556 87.1988 28.4648 87.4284 29.1735C87.9143 28.489 88.5584 27.9287 89.3073 27.5391C90.0562 27.1495 90.8884 26.9419 91.7347 26.9334C92.2395 26.8794 92.7501 26.9396 93.2278 27.1094C93.7055 27.2792 94.1378 27.5542 94.4919 27.9136C94.846 28.2729 95.1127 28.7072 95.2716 29.1835C95.4306 29.6597 95.4777 30.1655 95.4094 30.6624V39.568H92.1365Z" fill="#0F2C5E"></path><path d="M98.3242 23.4896C98.3242 23.1054 98.4396 22.7298 98.6557 22.4104C98.8718 22.0909 99.1789 21.8419 99.5383 21.6949C99.8977 21.5478 100.293 21.5094 100.675 21.5843C101.056 21.6593 101.407 21.8443 101.682 22.116C101.957 22.3877 102.144 22.7338 102.22 23.1106C102.296 23.4875 102.257 23.8781 102.108 24.233C101.959 24.588 101.707 24.8914 101.384 25.1049C101.06 25.3183 100.68 25.4323 100.291 25.4323C99.7693 25.4323 99.2691 25.2276 98.9003 24.8633C98.5314 24.499 98.3242 24.0048 98.3242 23.4896ZM98.6688 39.5677V27.2466H101.942V39.5677H98.6688Z" fill="#0F2C5E"></path><path d="M105.844 36.4484V30.0679H103.777V27.2324H105.844V23.8722H109.145V27.2468H111.686V30.0824H109.145V35.6542C109.145 36.4199 109.562 37.0723 110.293 37.0723C110.702 37.0872 111.102 36.962 111.427 36.7179L112.116 39.1706C111.336 39.7573 110.365 40.04 109.387 39.9647C108.904 40.0373 108.409 39.9963 107.945 39.8451C107.48 39.6938 107.058 39.4365 106.713 39.094C106.367 38.7516 106.109 38.3336 105.957 37.8739C105.806 37.4143 105.767 36.9259 105.842 36.4484H105.844Z" fill="#0F2C5E"></path><path d="M113.598 23.4899C113.598 23.1057 113.713 22.7301 113.929 22.4106C114.145 22.0911 114.452 21.8421 114.812 21.6951C115.171 21.5481 115.567 21.5096 115.948 21.5846C116.33 21.6595 116.68 21.8445 116.955 22.1162C117.23 22.3879 117.417 22.734 117.493 23.1109C117.569 23.4877 117.53 23.8783 117.381 24.2333C117.233 24.5882 116.98 24.8916 116.657 25.1051C116.334 25.3186 115.953 25.4325 115.564 25.4325C115.043 25.4325 114.543 25.2278 114.174 24.8635C113.805 24.4992 113.598 24.0051 113.598 23.4899ZM113.928 39.568V27.2468H117.212V39.568H113.928Z" fill="#0F2C5E"></path><path d="M123.704 39.5683L118.68 27.2472H122.196L125.412 35.8273L128.67 27.2472H132.217L127.193 39.5683H123.704Z" fill="#0F2C5E"></path><path d="M139.378 26.9349C143.11 26.9349 145.637 29.6856 145.637 33.7261V34.4349H136.364C136.486 35.2693 136.924 36.0268 137.59 36.5534C138.257 37.0801 139.101 37.3365 139.952 37.2704C141.177 37.2729 142.361 36.8344 143.282 36.0371L144.718 38.1334C143.273 39.3035 141.446 39.9134 139.579 39.849C138.696 39.9005 137.811 39.7749 136.978 39.4798C136.145 39.1848 135.381 38.7263 134.732 38.1319C134.083 37.5376 133.563 36.8197 133.202 36.0216C132.842 35.2234 132.648 34.3613 132.634 33.4874C132.619 32.6134 132.784 31.7456 133.118 30.9362C133.452 30.1267 133.948 29.3923 134.577 28.7773C135.205 28.1622 135.954 27.6792 136.776 27.3572C137.599 27.0353 138.479 26.8811 139.364 26.9039L139.378 26.9349ZM136.307 32.1953H142.466C142.452 31.8139 142.359 31.4394 142.195 31.094C142.031 30.7487 141.797 30.4397 141.509 30.1855C141.221 29.9313 140.884 29.7372 140.518 29.6148C140.152 29.4923 139.765 29.4441 139.38 29.473C138.612 29.452 137.866 29.7225 137.294 30.229C136.722 30.7354 136.369 31.4392 136.307 32.1953Z" fill="#0F2C5E"></path><path d="M148.377 35.6981C149.586 36.7102 151.1 37.2985 152.683 37.3712C154.119 37.3712 154.779 36.889 154.779 36.1233C154.779 35.3577 153.703 34.9464 152.281 34.7053C150.128 34.306 147.372 33.7979 147.372 30.862C147.372 28.7921 149.195 26.9772 152.482 26.9772C154.3 26.9415 156.074 27.5387 157.491 28.6643L156.2 30.8759C155.202 29.9502 153.88 29.4419 152.511 29.4579C151.319 29.4579 150.544 29.8832 150.544 30.6059C150.544 31.3287 151.535 31.6411 152.927 31.9246C155.065 32.3359 157.937 32.9029 157.937 35.9676C157.937 38.2362 155.999 39.9232 152.539 39.9232C150.495 39.9623 148.506 39.2669 146.941 37.9661L148.377 35.6981Z" fill="#0F2C5E"></path><path d="M25.3992 0.61454C23.7061 0.48454 5.34938 0.61454 5.34938 0.61454C5.34938 0.61454 1.46178 0.105484 0.530376 4.89188C0.385806 5.63548 0.524706 7.25488 0.530376 8.95048C0.535235 10.8033 0.478136 13.5409 0.530376 16.5145C0.644574 23.0317 0.714218 30.2345 0.714218 30.2345C0.714218 30.2345 -0.176682 33.719 5.34775 36.0278C10.8722 38.3366 13.1893 32.8481 13.1893 32.8481L16.0852 28.4481C16.0852 28.4481 21.0755 26.4438 21.1646 26.3141C21.2537 26.1845 28.4716 19.3434 28.4716 19.3434C28.4716 19.3434 30.6548 16.1203 30.6548 15.9903C30.6548 15.8603 31.457 11.1106 31.457 11.1106L30.9225 7.5829L28.962 2.74657C28.962 2.74657 27.0923 0.74414 25.3992 0.61454Z" fill="white"></path><g filter="url(#filter0_d_5_1191)"><path d="M25.3992 0.616494C23.7061 0.486494 5.34938 0.616494 5.34938 0.616494C5.34938 0.616494 1.46178 0.107438 0.530376 4.89384C0.385806 5.63744 0.524706 7.25683 0.530376 8.95243C0.535235 10.8052 0.478136 13.5429 0.530376 16.5165C0.644574 23.0337 0.714218 30.2364 0.714218 30.2364C0.714218 30.2364 -0.176682 33.721 5.34775 36.0298C10.8722 38.3386 13.1893 32.8501 13.1893 32.8501L16.0852 28.4501C16.0852 28.4501 21.0755 26.4457 21.1646 26.3161C21.2537 26.1865 28.4716 19.3454 28.4716 19.3454C28.4716 19.3454 30.6548 16.1223 30.6548 15.9923C30.6548 15.8623 31.457 11.1126 31.457 11.1126L30.9225 7.58485L28.962 2.74852C28.962 2.74852 27.0923 0.746094 25.3992 0.616494Z" fill="white"></path></g><mask id="mask0_5_1191" maskUnits="userSpaceOnUse" x="0" y="-1" width="38" height="42"><path fill-rule="evenodd" clip-rule="evenodd" d="M31.7673 4.0116C27.9886 1.204 27.9797 1.1796 27.9797 1.1796C27.6765 0.951781 27.3539 0.750233 27.0155 0.5772C26.6674 0.374575 26.2929 0.220068 25.9023 0.118C25.4616 0.0203309 25.0098 -0.0193464 24.5586 -4.57279e-07H5.7427C4.99124 -0.0168534 4.24448 0.121369 3.55018 0.405828C2.85588 0.690287 2.22931 1.11472 1.71054 1.652C0.642058 2.67573 0.0271087 4.0755 0 5.5456V30.68C0.0510419 32.145 0.662267 33.5364 1.71054 34.574C1.95351 34.692 2.07703 34.928 2.32162 35.046L7.08675 38.584C7.20824 38.82 7.45324 38.938 7.57554 39.056C8.47448 39.6666 9.53877 39.9955 10.6297 40C11.3133 40.0126 11.9926 39.8908 12.6281 39.6417C13.2636 39.3926 13.8426 39.0212 14.3315 38.5491C14.8204 38.077 15.2094 37.5136 15.4758 36.8917C15.7423 36.2698 15.8809 35.6017 15.8836 34.9264V34.3364C15.8761 33.8468 16.0643 33.374 16.4074 33.0205C16.7506 32.6671 17.2209 32.4615 17.7165 32.4484H18.4495C29.0792 32.4484 37.6319 27.0208 37.6319 16.4012V16.2832C37.6319 11.0916 35.5553 6.8436 31.7673 4.0116ZM3.17689 34.3364V34.2184H3.0554V34.0984H2.81243V33.9804H2.69094V33.8604H2.56945V33.7424C2.14666 33.3486 1.8092 32.8742 1.57755 32.3478C1.34589 31.8214 1.22485 31.254 1.22176 30.68V5.5456C1.2114 4.95178 1.32546 4.36227 1.55675 3.81406C1.78805 3.26586 2.13159 2.77081 2.56581 2.36C3.4258 1.55411 4.55766 1.09166 5.7427 1.062H24.5586C24.9251 1.062 25.2916 1.18 25.5362 1.18C25.869 1.27825 26.1955 1.39647 26.5138 1.534C27.2178 1.87804 27.8106 2.4093 28.2255 3.068C28.6266 3.7055 28.8383 4.44144 28.8366 5.192C28.8199 6.25748 28.3813 7.27411 27.6149 8.024C26.7768 8.77268 25.6902 9.19242 24.5603 9.204H13.562C13.1303 9.1965 12.7016 9.27639 12.3023 9.43874C11.9031 9.60109 11.5417 9.84246 11.2404 10.148C10.9317 10.4364 10.6858 10.7839 10.5178 11.1694C10.3497 11.5548 10.263 11.9701 10.263 12.3898C10.263 12.8095 10.3497 13.2248 10.5178 13.6102C10.6858 13.9957 10.9317 14.3432 11.2404 14.6316C11.5417 14.9371 11.9031 15.1785 12.3023 15.3409C12.7016 15.5032 13.1303 15.5831 13.562 15.5756H18.9382C20.0317 15.5878 21.0797 16.0095 21.8705 16.7556C22.2568 17.122 22.5641 17.5617 22.7741 18.0483C22.984 18.5349 23.0922 19.0584 23.0922 19.5874C23.0922 20.1164 22.984 20.6399 22.7741 21.1265C22.5641 21.6131 22.2568 22.0528 21.8705 22.4192C21.4952 22.811 21.0393 23.1191 20.5336 23.3227C20.0279 23.5264 19.484 23.6209 18.9382 23.6H12.7068C12.0658 23.6109 11.4535 23.8643 10.9962 24.308C10.7679 24.5205 10.5852 24.7764 10.4593 25.0602C10.3334 25.3441 10.2667 25.6501 10.2632 25.96V26.078V26.196V26.314V26.432V26.55V26.668V26.786V26.904V27.022V27.14V27.258V27.376V27.494V27.612V27.73V30.68C10.2614 31.2547 10.1413 31.823 9.91024 32.3504C9.67919 32.8778 9.34201 33.3533 8.91919 33.748C8.50203 34.16 8.00672 34.4867 7.46159 34.7095C6.91646 34.9322 6.33222 35.0466 5.7423 35.046C4.83496 35.065 3.94226 34.8181 3.17689 34.3364Z" fill="white"></path></mask><g mask="url(#mask0_5_1191)"><path d="M-14.7372 -22.0629L-3.27193 -28.4628C6.50256 -33.9169 18.9998 -30.6792 24.644 -21.2333L31.8413 -9.18538C37.4845 0.261191 34.136 12.3404 24.3611 17.7948L12.8959 24.1947C3.12136 29.6488 -9.37586 26.4111 -15.0201 16.9652L-22.217 4.91707C-27.8605 -4.52929 -24.5117 -16.6088 -14.7372 -22.0629Z" fill="#2955D9"></path><path d="M1.99267 27.6356L32.9269 10.3745C35.0371 9.19273 37.531 8.87143 39.8776 9.47903C42.2241 10.0866 44.2377 11.5751 45.4896 13.6274L63.9262 44.4904C64.5283 45.502 64.919 46.6223 65.0755 47.7855C65.2319 48.9486 65.1509 50.1309 64.8371 51.2626C64.5233 52.3943 63.9832 53.4525 63.2486 54.3746C62.514 55.2967 61.5999 56.0641 60.5601 56.6315L29.6259 73.8926C27.5154 75.0744 25.0212 75.3955 22.6746 74.7876C20.328 74.1797 18.3143 72.6908 17.0627 70.6381L-1.37346 39.7767C-1.9755 38.7651 -2.36627 37.6447 -2.52272 36.4816C-2.67917 35.3185 -2.59812 34.1361 -2.28435 33.0044C-1.97059 31.8727 -1.43047 30.8146 -0.695878 29.8925C0.0387124 28.9704 0.952884 28.203 1.99267 27.6356Z" fill="#2955D9"></path><path d="M4.25781 -19.3466L45.0074 -42.0846L68.5248 -2.71625L27.7753 20.0218L4.25781 -19.3466Z" fill="#3E74FF"></path><path d="M17.5738 11.1007L41.0767 50.4441L0.354706 73.1669L-23.1482 33.8235L17.5738 11.1007Z" fill="#3E74FF"></path></g><defs><filter id="filter0_d_5_1191" x="-1.93516" y="-0.641284" width="35.7922" height="40.8381" filterUnits="userSpaceOnUse" color-interpolation-filters="sRGB"><feFlood flood-opacity="0" result="BackgroundImageFix"></feFlood><feColorMatrix in="SourceAlpha" type="matrix" values="0 0 0 0 0 0 0 0 0 0 0 0 0 0 0 0 0 0 127 0" result="hardAlpha"></feColorMatrix><feOffset dy="1.2"></feOffset><feGaussianBlur stdDeviation="1.2"></feGaussianBlur><feColorMatrix type="matrix" values="0 0 0 0 1 0 0 0 0 1 0 0 0 0 1 0 0 0 0.161 0"></feColorMatrix><feBlend mode="normal" in2="BackgroundImageFix" result="effect1_dropShadow_5_1191"></feBlend><feBlend mode="normal" in="SourceGraphic" in2="effect1_dropShadow_5_1191" result="shape"></feBlend></filter></defs></svg>